<mxfile host="app.diagrams.net" modified="2021-03-01T11:59:16.929Z" agent="5.0 (Windows NT 10.0; WOW64) AppleWebKit/537.36 (KHTML, like Gecko) Chrome/86.0.4240.111 Safari/537.36" etag="EQVniEBDU0K98VhZGi8D" version="14.4.3" type="github">
  <diagram id="cTR_d-nhLQc8iKmVOfPP" name="Page-1">
    <mxGraphModel dx="1422" dy="772" grid="1" gridSize="10" guides="1" tooltips="1" connect="1" arrows="1" fold="1" page="1" pageScale="1" pageWidth="827" pageHeight="1169" math="0" shadow="0">
      <root>
        <mxCell id="0" />
        <mxCell id="1" parent="0" />
        <mxCell id="qOt5WrL9bUsYMk7Kk0OR-1" value="" style="aspect=fixed;perimeter=ellipsePerimeter;html=1;align=center;shadow=0;dashed=0;spacingTop=3;image;image=img/lib/active_directory/databases.svg;" vertex="1" parent="1">
          <mxGeometry x="168.5" y="170" width="50" height="49" as="geometry" />
        </mxCell>
        <mxCell id="qOt5WrL9bUsYMk7Kk0OR-2" value="" style="aspect=fixed;perimeter=ellipsePerimeter;html=1;align=center;shadow=0;dashed=0;spacingTop=3;image;image=img/lib/active_directory/mac_client.svg;" vertex="1" parent="1">
          <mxGeometry x="70" y="270" width="47" height="50" as="geometry" />
        </mxCell>
        <mxCell id="qOt5WrL9bUsYMk7Kk0OR-3" value="" style="aspect=fixed;perimeter=ellipsePerimeter;html=1;align=center;shadow=0;dashed=0;spacingTop=3;image;image=img/lib/active_directory/mac_client.svg;" vertex="1" parent="1">
          <mxGeometry x="170" y="270" width="47" height="50" as="geometry" />
        </mxCell>
        <mxCell id="qOt5WrL9bUsYMk7Kk0OR-4" value="" style="aspect=fixed;perimeter=ellipsePerimeter;html=1;align=center;shadow=0;dashed=0;spacingTop=3;image;image=img/lib/active_directory/mac_client.svg;" vertex="1" parent="1">
          <mxGeometry x="270" y="270" width="47" height="50" as="geometry" />
        </mxCell>
        <mxCell id="qOt5WrL9bUsYMk7Kk0OR-5" value="" style="aspect=fixed;perimeter=ellipsePerimeter;html=1;align=center;shadow=0;dashed=0;spacingTop=3;image;image=img/lib/active_directory/web_server.svg;" vertex="1" parent="1">
          <mxGeometry x="173.5" y="60" width="40" height="50" as="geometry" />
        </mxCell>
        <mxCell id="qOt5WrL9bUsYMk7Kk0OR-9" value="" style="endArrow=classic;html=1;" edge="1" parent="1">
          <mxGeometry width="50" height="50" relative="1" as="geometry">
            <mxPoint x="190" y="160" as="sourcePoint" />
            <mxPoint x="190" y="110" as="targetPoint" />
            <Array as="points" />
          </mxGeometry>
        </mxCell>
        <mxCell id="qOt5WrL9bUsYMk7Kk0OR-10" value="" style="endArrow=classic;html=1;entryX=0.5;entryY=0;entryDx=0;entryDy=0;fillColor=#dae8fc;strokeColor=#6c8ebf;dashed=1;" edge="1" parent="1" target="qOt5WrL9bUsYMk7Kk0OR-4">
          <mxGeometry width="50" height="50" relative="1" as="geometry">
            <mxPoint x="220" y="110" as="sourcePoint" />
            <mxPoint x="250" y="90" as="targetPoint" />
            <Array as="points" />
          </mxGeometry>
        </mxCell>
        <mxCell id="qOt5WrL9bUsYMk7Kk0OR-11" value="" style="endArrow=classic;html=1;dashed=1;fillColor=#dae8fc;strokeColor=#6c8ebf;" edge="1" parent="1">
          <mxGeometry width="50" height="50" relative="1" as="geometry">
            <mxPoint x="170" y="110" as="sourcePoint" />
            <mxPoint x="90" y="260" as="targetPoint" />
            <Array as="points" />
          </mxGeometry>
        </mxCell>
        <mxCell id="qOt5WrL9bUsYMk7Kk0OR-12" value="" style="endArrow=classic;html=1;entryX=0.766;entryY=-0.08;entryDx=0;entryDy=0;fillColor=#dae8fc;strokeColor=#6c8ebf;dashed=1;entryPerimeter=0;" edge="1" parent="1" target="qOt5WrL9bUsYMk7Kk0OR-3">
          <mxGeometry width="50" height="50" relative="1" as="geometry">
            <mxPoint x="200" y="114.5" as="sourcePoint" />
            <mxPoint x="273.5" y="274.5" as="targetPoint" />
            <Array as="points">
              <mxPoint x="240" y="200" />
            </Array>
          </mxGeometry>
        </mxCell>
        <mxCell id="qOt5WrL9bUsYMk7Kk0OR-13" value="&lt;h1&gt;初始方案&lt;/h1&gt;&lt;p&gt;每个node都配置了mongodb的链接，在启动pnode时，将自己的信息写到mongodb中，pserver通过查询mongodb的数据，获取pnode的之地址&lt;/p&gt;&lt;p&gt;&lt;b&gt;&lt;font style=&quot;font-size: 14px&quot;&gt;缺点：&lt;/font&gt;&lt;/b&gt;&lt;/p&gt;&lt;p&gt;1，如果Node掉了，Server无法知道&lt;/p&gt;&lt;p&gt;2，暴露了mongodb的相关信息&lt;/p&gt;" style="text;html=1;strokeColor=none;fillColor=none;spacing=5;spacingTop=-20;whiteSpace=wrap;overflow=hidden;rounded=0;" vertex="1" parent="1">
          <mxGeometry x="450" y="79.5" width="190" height="230" as="geometry" />
        </mxCell>
        <mxCell id="qOt5WrL9bUsYMk7Kk0OR-14" value="N1" style="text;html=1;strokeColor=none;fillColor=none;align=center;verticalAlign=middle;whiteSpace=wrap;rounded=0;" vertex="1" parent="1">
          <mxGeometry x="70" y="320" width="40" height="20" as="geometry" />
        </mxCell>
        <mxCell id="qOt5WrL9bUsYMk7Kk0OR-15" value="N2" style="text;html=1;strokeColor=none;fillColor=none;align=center;verticalAlign=middle;whiteSpace=wrap;rounded=0;" vertex="1" parent="1">
          <mxGeometry x="173.5" y="320" width="40" height="20" as="geometry" />
        </mxCell>
        <mxCell id="qOt5WrL9bUsYMk7Kk0OR-16" value="N3" style="text;html=1;strokeColor=none;fillColor=none;align=center;verticalAlign=middle;whiteSpace=wrap;rounded=0;" vertex="1" parent="1">
          <mxGeometry x="270" y="320" width="40" height="20" as="geometry" />
        </mxCell>
        <mxCell id="qOt5WrL9bUsYMk7Kk0OR-17" value="Server" style="text;html=1;strokeColor=none;fillColor=none;align=center;verticalAlign=middle;whiteSpace=wrap;rounded=0;" vertex="1" parent="1">
          <mxGeometry x="168.5" y="40" width="40" height="20" as="geometry" />
        </mxCell>
        <mxCell id="qOt5WrL9bUsYMk7Kk0OR-18" value="" style="endArrow=classic;startArrow=classic;html=1;" edge="1" parent="1">
          <mxGeometry width="50" height="50" relative="1" as="geometry">
            <mxPoint x="190" y="266" as="sourcePoint" />
            <mxPoint x="190" y="220" as="targetPoint" />
          </mxGeometry>
        </mxCell>
        <mxCell id="qOt5WrL9bUsYMk7Kk0OR-19" value="" style="endArrow=classic;startArrow=classic;html=1;" edge="1" parent="1">
          <mxGeometry width="50" height="50" relative="1" as="geometry">
            <mxPoint x="110" y="269" as="sourcePoint" />
            <mxPoint x="160" y="219" as="targetPoint" />
            <Array as="points">
              <mxPoint x="140" y="239" />
            </Array>
          </mxGeometry>
        </mxCell>
        <mxCell id="qOt5WrL9bUsYMk7Kk0OR-20" value="" style="endArrow=classic;startArrow=classic;html=1;exitX=0.021;exitY=0.08;exitDx=0;exitDy=0;exitPerimeter=0;" edge="1" parent="1" source="qOt5WrL9bUsYMk7Kk0OR-4">
          <mxGeometry width="50" height="50" relative="1" as="geometry">
            <mxPoint x="173.5" y="269" as="sourcePoint" />
            <mxPoint x="223.5" y="219" as="targetPoint" />
            <Array as="points" />
          </mxGeometry>
        </mxCell>
        <mxCell id="qOt5WrL9bUsYMk7Kk0OR-21" value="DB" style="text;html=1;align=center;verticalAlign=middle;whiteSpace=wrap;rounded=0;" vertex="1" parent="1">
          <mxGeometry x="168.5" y="170" width="40" height="20" as="geometry" />
        </mxCell>
        <mxCell id="qOt5WrL9bUsYMk7Kk0OR-22" value="" style="endArrow=none;dashed=1;html=1;" edge="1" parent="1">
          <mxGeometry width="50" height="50" relative="1" as="geometry">
            <mxPoint y="360" as="sourcePoint" />
            <mxPoint x="820" y="360" as="targetPoint" />
          </mxGeometry>
        </mxCell>
      </root>
    </mxGraphModel>
  </diagram>
</mxfile>
